<?xml version="1.0" standalone="no"?><!DOCTYPE svg PUBLIC "-//W3C//DTD SVG 1.1//EN" "http://www.w3.org/Graphics/SVG/1.1/DTD/svg11.dtd"><svg t="1747109579607" class="icon" viewBox="0 0 1024 1024" version="1.1" xmlns="http://www.w3.org/2000/svg" p-id="37759" xmlns:xlink="http://www.w3.org/1999/xlink" width="64" height="64"><path d="M499.566 33.097c-264.548 0-478.903 214.431-478.903 478.903 0 264.471 214.354 478.903 478.903 478.903 264.472 0 478.903-214.431 478.903-478.903 0-264.472-214.431-478.903-478.903-478.903v0zM726.856 532.656c-0.701 1.56-1.557 2.807-2.026 3.509-0.233 0.388-0.468 0.856-0.701 1.247-1.325 2.572-3.196 6.001-6.235 9.198l-0.233 0.155c-0.156 0.232-0.314 0.387-0.47 0.546-0.624 0.857-1.325 1.713-2.027 2.414l-280.142 270.010c-9.977 9.585-23.227 14.885-37.023 14.885-14.655 0-28.293-5.768-38.426-16.29-20.423-21.201-19.799-55.028 1.402-75.452l241.164-232.433-242.101-229.010c-21.356-20.186-22.293-54.015-2.104-75.452 10.055-10.601 24.242-16.682 38.817-16.682 13.64 0 26.736 5.225 36.636 14.578l282.555 267.199c16.601 15.747 21.046 40.454 10.911 61.578v0z" fill="#262435" p-id="37760"></path></svg>