<?xml version="1.0" standalone="no"?><!DOCTYPE svg PUBLIC "-//W3C//DTD SVG 1.1//EN" "http://www.w3.org/Graphics/SVG/1.1/DTD/svg11.dtd"><svg t="1747108862625" class="icon" viewBox="0 0 1024 1024" version="1.1" xmlns="http://www.w3.org/2000/svg" p-id="21655" xmlns:xlink="http://www.w3.org/1999/xlink" width="64" height="64"><path d="M512 0c330.007273 0 512 182.109091 512 512S842.007273 1024 512 1024 0 841.890909 0 512 181.992727 0 512 0" fill="#77B4F8" p-id="21656"></path><path d="M636.16 421.934545a19.2 19.2 0 0 0-13.498182-4.654545 26.647273 26.647273 0 0 0-10.007273 1.978182 15.127273 15.127273 0 0 0-10.356363 13.730909V500.363636H395.636364v72.610909L271.592727 449.28 395.636364 325.818182v69.818182h162.909091v-23.272728H421.585455v-63.185454a16.989091 16.989091 0 0 0-10.589091-16.64 23.272727 23.272727 0 0 0-8.727273-1.629091 20.945455 20.945455 0 0 0-14.545455 5.236364L251.461818 432.058182a24.436364 24.436364 0 0 0 0 34.909091l136.378182 136.029091a19.2 19.2 0 0 0 13.498182 4.654545 26.414545 26.414545 0 0 0 10.007273-1.861818 15.127273 15.127273 0 0 0 10.356363-13.847273V523.636364H628.363636v-71.68l124.043637 123.694545L628.363636 687.127273V616.727273H465.454545v23.272727h136.96v64.116364a16.872727 16.872727 0 0 0 10.589091 16.64 23.272727 23.272727 0 0 0 8.727273 1.629091 20.829091 20.829091 0 0 0 14.545455-5.352728L772.538182 593.454545a24.436364 24.436364 0 0 0 0-34.90909z" fill="#FFFFFF" p-id="21657"></path></svg>