<?xml version="1.0" standalone="no"?><!DOCTYPE svg PUBLIC "-//W3C//DTD SVG 1.1//EN" "http://www.w3.org/Graphics/SVG/1.1/DTD/svg11.dtd"><svg t="1744982966541" class="icon" viewBox="0 0 1024 1024" version="1.1" xmlns="http://www.w3.org/2000/svg" p-id="7758" xmlns:xlink="http://www.w3.org/1999/xlink" width="64" height="64"><path d="M384 938.666667a42.666667 42.666667 0 1 1-42.666667-42.666667 42.713333 42.713333 0 0 1 42.666667 42.666667z m341.333333-42.666667a42.666667 42.666667 0 1 0 42.666667 42.666667 42.713333 42.713333 0 0 0-42.666667-42.666667z m241.333334-623.013333a37.226667 37.226667 0 0 0-31.333334-16.986667h-98.9a32 32 0 0 0-7.56-11.96l-144.913333-144.913333a32 32 0 0 0-45.253333 0L597.333333 140.5 513.293333 56.46a32 32 0 0 0-45.253333 0L268.493333 256H174.933333l-47.88-155.606667A21.333333 21.333333 0 0 0 106.666667 85.333333H21.333333a21.333333 21.333333 0 0 0 0 42.666667h69.58l161.586667 525.166667a42.893333 42.893333 0 0 1 1.333333 19.56l-6.453333 38.606666a85.333333 85.333333 0 0 0 84.166667 99.333334H789.333333a21.333333 21.333333 0 0 0 0-42.666667H331.546667a42.666667 42.666667 0 0 1-42.08-49.68l5.94-35.653333h452.333333a85.413333 85.413333 0 0 0 78-50.666667l143.773333-323.5a37.206667 37.206667 0 0 0-2.846666-35.513333z" fill="#2c2c2c" p-id="7759"></path></svg>