<?xml version="1.0" standalone="no"?><!DOCTYPE svg PUBLIC "-//W3C//DTD SVG 1.1//EN" "http://www.w3.org/Graphics/SVG/1.1/DTD/svg11.dtd"><svg t="1747108777723" class="icon" viewBox="0 0 1299 1024" version="1.1" xmlns="http://www.w3.org/2000/svg" p-id="15882" xmlns:xlink="http://www.w3.org/1999/xlink" width="81.1875" height="64"><path d="M1193.081834 827.579803a142.337783 142.337783 0 0 0-273.383633 27.041207 139.366222 139.366222 0 0 0-2.080093 23.77249v3.268717a142.337783 142.337783 0 0 0 284.675566 0v-3.268717a148.578062 148.578062 0 0 0-9.508996-50.813697z m-73.694719 54.082414a59.431225 59.431225 0 0 1-118.862449 0v-3.268717a59.431225 59.431225 0 0 1 5.051654-23.77249 59.431225 59.431225 0 0 1 23.77249-27.041207 59.431225 59.431225 0 0 1 89.146837 50.813697s0.891468 2.377249 0.891468 3.268717zM189.585607 742.890308a180.373767 180.373767 0 0 1 29.715612-21.098085l11.291932-5.645966H54.379571a11.886245 11.886245 0 0 0-11.886245 11.886244v143.229252a11.886245 11.886245 0 0 0 11.886245 11.886245h72.506094s0-19.315148 1.48578-27.041208a173.836332 173.836332 0 0 1 5.645966-27.041207A178.293674 178.293674 0 0 1 189.585607 742.890308zM438.008125 827.579803a142.337783 142.337783 0 0 0-267.44051 0 146.200813 146.200813 0 0 0-7.428903 27.041207 139.960534 139.960534 0 0 0-2.080093 23.77249v3.268717a142.337783 142.337783 0 0 0 284.675566 0v-3.268717a148.578062 148.578062 0 0 0-9.508996-50.813697z m-73.694718 54.082414a59.431225 59.431225 0 0 1-118.862449 0v-3.268717a59.431225 59.431225 0 0 1 5.051654-23.77249 59.431225 59.431225 0 0 1 23.77249-27.041207 59.431225 59.431225 0 0 1 61.511317 0 59.431225 59.431225 0 0 1 23.77249 27.041207 59.431225 59.431225 0 0 1 5.051654 23.77249v3.268717z" fill="#E4393C" p-id="15883"></path><path d="M1288.171793 697.722577v-202.066164a306.665119 306.665119 0 0 0-124.211259-246.04527h-208.009286a29.715612 29.715612 0 0 0-29.715612 29.715613v430.579222a11.886245 11.886245 0 0 1-11.886245 11.886245H391.65177A178.293674 178.293674 0 0 1 475.449797 827.579803a175.916425 175.916425 0 0 1 5.645966 27.041207c0 7.726059 1.782937 25.852583 1.485781 27.041207h398.783517s0-19.315148 1.782937-27.041207a174.430644 174.430644 0 0 1 5.645966-27.041207A178.293674 178.293674 0 0 1 944.362159 742.890308a180.373767 180.373767 0 0 1 79.043529-38.927453 178.293674 178.293674 0 0 1 109.353453 11.886245 176.510737 176.510737 0 0 1 104.004643 139.069066c0 7.726059 1.485781 27.041207 1.485781 27.041207h44.870574a11.886245 11.886245 0 0 0 11.886245-11.886245v-163.435867z m-63.294254-235.941962h-251.691236v-152.143935a5.943122 5.943122 0 0 1 5.943122-5.943122h172.350552a5.645966 5.645966 0 0 1 3.863029 0 258.525827 258.525827 0 0 1 75.477656 148.578061 6.240279 6.240279 0 0 1-5.943123 9.806152z" fill="#E4393C" p-id="15884"></path><path d="M868.587348 651.960534V11.291933a11.291933 11.291933 0 0 0-11.291933-11.291933H79.637841A79.637841 79.637841 0 0 0 0 79.637841v572.322693a11.291933 11.291933 0 0 0 11.291933 11.291933h846.003482a11.291933 11.291933 0 0 0 11.291933-11.291933z m-434.145096-115.296576a190.179919 190.179919 0 1 1 190.179919-190.179919 190.179919 190.179919 0 0 1-190.179919 190.179919z" fill="#E4393C" p-id="15885"></path><path d="M445.734185 339.649449v-98.061521a19.612304 19.612304 0 0 0-39.224609 0v118.862449a19.612304 19.612304 0 0 0 19.612304 19.612304h128.668602a19.612304 19.612304 0 1 0 0-39.224608z" fill="#E4393C" p-id="15886"></path></svg>