<?xml version="1.0" standalone="no"?><!DOCTYPE svg PUBLIC "-//W3C//DTD SVG 1.1//EN" "http://www.w3.org/Graphics/SVG/1.1/DTD/svg11.dtd"><svg t="1747108800402" class="icon" viewBox="0 0 1024 1024" version="1.1" xmlns="http://www.w3.org/2000/svg" p-id="17805" xmlns:xlink="http://www.w3.org/1999/xlink" width="64" height="64"><path d="M512 0c282.760533 0 512 229.239467 512 512 0 282.760533-229.239467 512-512 512-282.760533 0-512-229.239467-512-512C0 229.239467 229.239467 0 512 0z m133.597867 273.066667h-301.329067c-25.531733 0-48.571733 15.394133-58.4704 39.048533l-44.782933 107.076267-0.170667 0.477866a18.090667 18.090667 0 0 0-1.911467 8.123734v270.813866c0 22.9376 9.079467 44.919467 25.224534 61.1328A85.879467 85.879467 0 0 0 325.0176 785.066667h339.831467A86.289067 86.289067 0 0 0 750.933333 698.606933v-54.0672a18.056533 18.056533 0 1 0-36.2496 0v54.0672c0 27.648-22.3232 50.039467-49.834666 50.039467H325.0176c-27.511467 0-49.834667-22.391467-49.834667-50.039467v-252.586666h455.850667c3.857067-0.273067 3.857067-0.273067 7.509333-1.501867a19.387733 19.387733 0 0 0 10.274134-25.326933l-44.7488-107.076267A63.419733 63.419733 0 0 0 645.597867 273.066667z m-82.0224 225.348266l-3.1744 0.512a18.158933 18.158933 0 0 0-8.6016 30.378667l38.161066 39.594667H370.346667a18.261333 18.261333 0 0 0 0 36.420266h209.032533l-27.648 29.149867a18.261333 18.261333 0 0 0 0.8192 25.4976c7.168 6.826667 18.432 6.690133 25.3952-0.375467l54.818133-57.787733a29.696 29.696 0 0 0-0.170666-40.96l-54.749867-56.866133a18.090667 18.090667 0 0 0-17.442133-5.051734z m82.0224-188.962133c10.922667 0 20.821333 6.621867 25.019733 16.725333L705.536 409.6H284.330667l34.9184-83.421867a27.170133 27.170133 0 0 1 25.053866-16.725333z" fill="#D70F19" p-id="17806"></path></svg>