<?xml version="1.0" standalone="no"?><!DOCTYPE svg PUBLIC "-//W3C//DTD SVG 1.1//EN" "http://www.w3.org/Graphics/SVG/1.1/DTD/svg11.dtd"><svg t="1747109178273" class="icon" viewBox="0 0 1024 1024" version="1.1" xmlns="http://www.w3.org/2000/svg" p-id="24457" xmlns:xlink="http://www.w3.org/1999/xlink" width="64" height="64"><path d="M517.8368 513.3312m-450.816 0a450.816 450.816 0 1 0 901.632 0 450.816 450.816 0 1 0-901.632 0Z" fill="#8486F8" p-id="24458"></path><path d="M516.8128 407.808m-66.5088 0a66.5088 66.5088 0 1 0 133.0176 0 66.5088 66.5088 0 1 0-133.0176 0Z" fill="#FFFFFF" p-id="24459"></path><path d="M515.4816 676.5568c39.4752-1.8432 196.8128-102.144 198.1952-277.1456 0-108.6976-88.1152-196.8128-196.8128-196.8128-108.6976 0-196.8128 88.1152-196.8128 196.8128-2.048 160.8192 161.2288 283.3408 195.4304 277.1456z m1.3312-385.6896c64.512 0 116.9408 52.48 116.9408 116.9408s-52.48 116.9408-116.9408 116.9408S399.872 472.32 399.872 407.808s52.48-116.9408 116.9408-116.9408z" fill="#FFFFFF" p-id="24460"></path><path d="M706.5088 592.0768c-46.2848 51.8656-119.808 120.832-191.6928 132.1472-77.9264-14.1824-153.088-95.3344-184.3712-133.0176-84.7872 20.6848-140.3392 55.0912-140.3392 94.1056 0 63.2832 146.2784 114.5856 326.7072 114.5856s326.7072-51.3024 326.7072-114.5856c0-38.4512-54.1184-72.448-137.0112-93.2352z" fill="#FFFFFF" p-id="24461"></path></svg>