<?xml version="1.0" standalone="no"?><!DOCTYPE svg PUBLIC "-//W3C//DTD SVG 1.1//EN" "http://www.w3.org/Graphics/SVG/1.1/DTD/svg11.dtd"><svg t="1747109225982" class="icon" viewBox="0 0 1024 1024" version="1.1" xmlns="http://www.w3.org/2000/svg" p-id="30261" xmlns:xlink="http://www.w3.org/1999/xlink" width="64" height="64"><path d="M355.0425 158.912585A158.932524 158.932524 0 1 1 196.090037 0.019939a158.932524 158.932524 0 0 1 158.952463 158.892646z m214.54196-79.416415a79.476231 79.476231 0 1 1-79.476232-79.476231 79.476231 79.476231 0 0 1 79.476232 79.476231z m230.433218 19.83915A79.476231 79.476231 0 1 1 720.541446 19.859088a79.456293 79.456293 0 0 1 79.476232 79.476232z m186.747211 103.323089a79.476231 79.476231 0 1 1-79.476231-79.476232 79.456293 79.456293 0 0 1 79.476231 79.476232zM284.478932 407.270824s50.644663-140.050439 244.350531-163.877357c0 0 299.082657-20.856031 350.504936 273.939775 25.142882 144.058147 14.674989 456.081114-216.416211 503.57544-55.828763 11.444896-217.532786-2.791438-196.676756-148.803592 7.357433-51.641606 55.828763-135.584138 0-208.580245-38.741174-50.644663-232.427102-65.558919-181.7625-256.254021" fill="#AD1313" p-id="30262"></path></svg>