<?xml version="1.0" standalone="no"?><!DOCTYPE svg PUBLIC "-//W3C//DTD SVG 1.1//EN" "http://www.w3.org/Graphics/SVG/1.1/DTD/svg11.dtd"><svg t="1747108826350" class="icon" viewBox="0 0 1024 1024" version="1.1" xmlns="http://www.w3.org/2000/svg" p-id="19714" xmlns:xlink="http://www.w3.org/1999/xlink" width="64" height="64"><path d="M785.22 937.608h-546c-77.9 0.1-141-63-141.1-140.8v-510.7c0.3-77.8 63.3-140.8 141.1-141.1v60.7c-44.3 0 589.8 0 545.5-60.7 77.9-0.1 141 63 141.1 140.8v510.5c0.4 77.6-62.3 140.8-139.9 141.2-0.2 0.1-0.4 0.1-0.7 0.1z" fill="#46D8AB" p-id="19715"></path><path d="M724.42 264.508h-424.7c-49.2 0-89.1-39.8-89.1-89.1s39.8-89.1 89.1-89.1h424.7c49.2 0 89.1 39.8 89.1 89.1s-40 89.1-89.1 89.1z" fill="#46D8AB" p-id="19716"></path><path d="M723.12 234.408h-422.7c-20.6-4.6-33.6-25-29-45.6a38.08 38.08 0 0 1 29-29h422.8c18.4 2.3 31.9 18.7 30.3 37.4 1.1 18.3-12.1 34.4-30.4 37.2z" fill="#80ECCB" p-id="19717"></path><path d="M391.832 736.768c-12.7-12.6-12.7-33.2-0.1-45.8 0-0.1 0.1-0.1 0.1-0.1l320.7-320.6c13-12.4 33.6-11.9 46 1.1 11.9 12.6 11.9 32.2 0 44.8l-320.9 320.6c-12.5 12.6-32.7 12.7-45.4 0.4l-0.4-0.4z" fill="#FCFCFC" p-id="19718"></path><path d="M438.032 736.768c-12.6 12.7-33.2 12.7-45.8 0.1l-0.1-0.1-125.4-125.2c-13-12.4-13.5-33-1.1-46s33-13.5 46-1.1l1.1 1.1 125.3 125.2c0.5 3.6-102.9 24.8 0 46z" fill="#FCFCFC" p-id="19719"></path></svg>