<?xml version="1.0" standalone="no"?><!DOCTYPE svg PUBLIC "-//W3C//DTD SVG 1.1//EN" "http://www.w3.org/Graphics/SVG/1.1/DTD/svg11.dtd"><svg t="1747108708642" class="icon" viewBox="0 0 1024 1024" version="1.1" xmlns="http://www.w3.org/2000/svg" p-id="9481" xmlns:xlink="http://www.w3.org/1999/xlink" width="64" height="64"><path d="M259.2768 274.35008h452.73088L699.1872 215.8592l-3.4816-15.31904c-9.33888-38.01088-31.37536-55.7056-44.19584-55.7056h-3.39968L259.2768 274.30912zM917.01248 741.7856c26.95168-6.144 46.36672-32.07168 46.61248-62.2592v-101.70368c-0.2048-30.14656-19.6608-56.03328-46.61248-62.0544-3.44064-1.4336-8.192-1.4336-11.63264-1.4336h-139.96032a55.0912 55.0912 0 0 0-41.1648 18.432 66.23232 66.23232 0 0 0-16.91648 45.056v101.70368c0 35.6352 25.6 63.488 58.08128 63.488h139.96032c3.4816 0 8.192 0 11.63264-1.2288z m104.6528-62.2592c0 64.88064-45.34272 119.43936-104.6528 125.7472v53.53472c-0.24576 70.0416-52.06016 126.7712-116.03968 126.976H157.04064c-63.97952-0.16384-115.83488-56.9344-116.08064-126.976V401.36704c0-8.92928 1.10592-17.73568 2.33472-25.43616-3.64544-58.368 21.99552-109.24032 63.77472-121.81504l524.61568-170.3936c7.12704-1.18784 12.94336-2.53952 19.78368-2.53952 43.08992 0 85.97504 42.02496 99.9424 101.74464 0 0 8.15104 36.82304 20.8896 88.8832h28.59008c63.8976 0.24576 115.712 56.9344 115.99872 126.93504v52.14208c59.392 6.84032 104.448 61.56288 104.6528 126.93504v101.70368h0.08192zM203.48928 768.49152V476.3648c-0.08192-14.00832-10.40384-25.3952-23.22432-25.47712h-11.63264c-12.82048 0.08192-23.18336 11.4688-23.22432 25.47712v292.12672c0 14.00832 10.40384 25.3952 23.22432 25.3952H180.224c12.77952-0.04096 23.1424-11.38688 23.22432-25.3952z" fill="#FF3232" p-id="9482"></path><path d="M752.92672 683.008a32.9728 32.9728 0 0 1-8.3968-22.60992v-63.488c0-17.69472 12.6976-31.66208 29.0816-31.66208 16.13824 0 28.83584 13.96736 28.83584 31.66208v63.488a33.01376 33.01376 0 0 1-8.35584 22.528 27.4432 27.4432 0 0 1-41.1648 0.08192z" fill="#FF3232" p-id="9483"></path></svg>