<?xml version="1.0" standalone="no"?><!DOCTYPE svg PUBLIC "-//W3C//DTD SVG 1.1//EN" "http://www.w3.org/Graphics/SVG/1.1/DTD/svg11.dtd"><svg t="1747109391387" class="icon" viewBox="0 0 1024 1024" version="1.1" xmlns="http://www.w3.org/2000/svg" p-id="32138" xmlns:xlink="http://www.w3.org/1999/xlink" width="64" height="64"><path d="M289.9456 496.64v32.6144a30.72 30.72 0 0 0 27.8016 30.72V465.92a30.72 30.72 0 0 0-27.8016 30.72zM709.5296 465.6128v93.9008a30.72 30.72 0 0 0 28.3648-30.72v-32.5632a30.72 30.72 0 0 0-28.3648-30.6176z" fill="#6893DF" p-id="32139"></path><path d="M510.5664 79.5648a428.3392 428.3392 0 1 0 428.288 428.3392 428.8512 428.8512 0 0 0-428.288-428.3392z m288.768 449.3312a92.16 92.16 0 0 1-92.16 92.16H696.32c-17.2032 43.9808-52.736 90.1632-116.6336 97.7408a51.712 51.712 0 1 1-9.2672-60.8768c64-6.6048 75.8784-80.128 77.5168-94.0032v-110.592a134.4 134.4 0 0 0-268.3904-11.008V573.44a48.2816 48.2816 0 0 1-48.1792 48.2304h-10.7008a92.16 92.16 0 0 1-92.16-92.16V496.64a92.16 92.16 0 0 1 92.16-92.16h3.2768a195.8912 195.8912 0 0 1 379.3408-0.3584h3.8912a92.16 92.16 0 0 1 92.16 92.16z" fill="#6893DF" p-id="32140"></path></svg>