<?xml version="1.0" encoding="UTF-8"?>
<svg width="120" height="120" viewBox="0 0 120 120" fill="none" xmlns="http://www.w3.org/2000/svg">
  <path d="M30 28H90L82 80H38L30 28Z" stroke="#CCCCCC" stroke-width="2"/>
  <path d="M45 90C45 92.7614 42.7614 95 40 95C37.2386 95 35 92.7614 35 90C35 87.2386 37.2386 85 40 85C42.7614 85 45 87.2386 45 90Z" stroke="#CCCCCC" stroke-width="2"/>
  <path d="M85 90C85 92.7614 82.7614 95 80 95C77.2386 95 75 92.7614 75 90C75 87.2386 77.2386 85 80 85C82.7614 85 85 87.2386 85 90Z" stroke="#CCCCCC" stroke-width="2"/>
  <path d="M50 50L70 70M70 50L50 70" stroke="#CCCCCC" stroke-width="2"/>
</svg>